<svg xmlns="http://www.w3.org/2000/svg" xmlns:xlink="http://www.w3.org/1999/xlink" width="200" height="40" viewBox="0 0 200 40">
    <defs>
        <path id="a" d="M0 38.88h199.735V0H0z"/>
        <path id="c" d="M6.233 6.439a4.506 4.506 0 0 0-1.712-.333C2.026 6.106 0 8.12 0 10.599a4.491 4.491 0 0 0 2.563 4.048l.006.005c.122.058.239.106.367.154.005.005.01.005.016.005.49.18 1.015.28 1.569.28 2.49 0 4.521-2.014 4.521-4.492a4.48 4.48 0 0 0-1.027-2.85 17.356 17.356 0 0 1 13.276-5.158c8.796.428 15.892 7.452 16.44 16.131h-5.569c-.527-5.597-5.015-10.063-10.648-10.581a10.839 10.839 0 0 0-1.107-.053c-.382 0-.76.016-1.137.053-5.632.518-10.127 4.984-10.649 10.581H.84c-.02.317-.032.64-.032.962-.005.413.006.824.032 1.232.564 9.952 8.808 18.044 18.961 18.335.18.005.359.008.537.008h.097A19.542 19.542 0 0 0 34.55 33.2a4.518 4.518 0 0 0 1.713.333c2.494 0 4.52-2.014 4.52-4.492a4.49 4.49 0 0 0-2.563-4.049l-.005-.005a4.453 4.453 0 0 0-.368-.154c-.005-.005-.01-.005-.015-.005a4.528 4.528 0 0 0-1.57-.28c-2.489 0-4.52 2.013-4.52 4.493 0 1.078.388 2.071 1.026 2.848a17.35 17.35 0 0 1-13.275 5.159c-8.797-.428-15.892-7.453-16.44-16.131H8.62c.527 5.597 5.017 10.063 10.649 10.58.377.038.755.054 1.137.054.373 0 .746-.016 1.107-.053 5.633-.518 10.126-4.984 10.648-10.581h7.781c.021-.318.032-.64.032-.962a15.94 15.94 0 0 0-.032-1.232C39.38 8.77 31.135.678 20.983.387A19.54 19.54 0 0 0 6.232 6.44m-3.659 5.407a2.276 2.276 0 0 1-.372-1.247 2.317 2.317 0 0 1 2.319-2.305c.047 0 .095.005.138.005.809.048 1.5.508 1.878 1.163.19.338.303.724.303 1.137a2.317 2.317 0 0 1-2.319 2.304h-.01a2.325 2.325 0 0 1-1.937-1.057m16.924 17.473c-4.505-.423-8.11-3.953-8.626-8.403a9.295 9.295 0 0 1 0-2.194c.515-4.455 4.121-7.98 8.626-8.404.298-.026.602-.042.91-.042.297 0 .585.016.877.042 4.505.423 8.112 3.954 8.628 8.404a9.52 9.52 0 0 1 0 2.194c-.516 4.455-4.123 7.98-8.628 8.403a9.64 9.64 0 0 1-.878.043c-.307 0-.611-.016-.909-.043m16.626 2.02a2.325 2.325 0 0 1-1.877-1.163 2.296 2.296 0 0 1-.303-1.136 2.317 2.317 0 0 1 2.319-2.305h.01a2.33 2.33 0 0 1 1.936 1.057c.234.36.372.787.372 1.248a2.316 2.316 0 0 1-2.318 2.304c-.048 0-.096-.006-.139-.006"/>
        <linearGradient id="d" x1="50%" x2="50%" y1="17.241%" y2="104.061%">
            <stop offset="0%" stop-color="#31C1D8"/>
            <stop offset="100%" stop-color="#544B9C"/>
        </linearGradient>
    </defs>
    <g fill="none" fill-rule="evenodd">
        <g transform="translate(0 .49)">
            <path fill="#222C33" d="M57.993 21.66v-1.49h2.998v1.49c0 2.104 1.727 3.788 3.813 3.788a3.785 3.785 0 0 0 3.813-3.789V10.421h3.031V21.66c0 3.756-3.064 6.801-6.844 6.801-3.748 0-6.811-3.045-6.811-6.8M80.71 20.947V10.42h3.03v10.526c0 2.493 2.053 4.501 4.563 4.501s4.53-2.008 4.53-4.501V10.42h3.03v10.526c0 4.145-3.389 7.513-7.56 7.513-4.171 0-7.594-3.368-7.594-7.513M113.4 19.198c1.596 0 2.9-1.296 2.9-2.883 0-1.586-1.304-2.882-2.9-2.882h-4.987v5.765h4.986zm-7.985-8.777h7.984c3.26 0 5.932 2.656 5.932 5.894 0 3.239-2.672 5.894-5.932 5.894h-4.986v6.251h-2.998V10.421z"/>
            <mask id="b" fill="#fff">
                <use xlink:href="#a"/>
            </mask>
            <path fill="#222C33" d="M128.36 28.46h3.031V10.422h-3.031zM145.992 13.433h-5.54v-3.012h14.078v3.012h-5.54V28.46h-2.998zM163.494 10.421h13.07v3.012h-10.038v4.502h5.018v3.012h-5.018v4.501h10.037v3.012h-13.069zM193.804 19.198c1.597 0 2.9-1.296 2.9-2.883 0-1.586-1.303-2.882-2.9-2.882h-4.954v5.765h4.954zm-7.985-8.777h7.985c3.259 0 5.931 2.656 5.931 5.894a5.85 5.85 0 0 1-2.998 5.117l2.933 7.028h-3.26l-2.639-6.25h-4.92v6.25h-3.032V10.421z" mask="url(#b)"/>
        </g>
        <g transform="translate(0 .112)">
            <mask id="e" fill="#fff">
                <use xlink:href="#c"/>
            </mask>
            <path fill="url(#d)" d="M6.233 6.439a4.506 4.506 0 0 0-1.712-.333C2.026 6.106 0 8.12 0 10.599a4.491 4.491 0 0 0 2.563 4.048l.006.005c.122.058.239.106.367.154.005.005.01.005.016.005.49.18 1.015.28 1.569.28 2.49 0 4.521-2.014 4.521-4.492a4.48 4.48 0 0 0-1.027-2.85 17.356 17.356 0 0 1 13.276-5.158c8.796.428 15.892 7.452 16.44 16.131h-5.569c-.527-5.597-5.015-10.063-10.648-10.581a10.839 10.839 0 0 0-1.107-.053c-.382 0-.76.016-1.137.053-5.632.518-10.127 4.984-10.649 10.581H.84c-.02.317-.032.64-.032.962-.005.413.006.824.032 1.232.564 9.952 8.808 18.044 18.961 18.335.18.005.359.008.537.008h.097A19.542 19.542 0 0 0 34.55 33.2a4.518 4.518 0 0 0 1.713.333c2.494 0 4.52-2.014 4.52-4.492a4.49 4.49 0 0 0-2.563-4.049l-.005-.005a4.453 4.453 0 0 0-.368-.154c-.005-.005-.01-.005-.015-.005a4.528 4.528 0 0 0-1.57-.28c-2.489 0-4.52 2.013-4.52 4.493 0 1.078.388 2.071 1.026 2.848a17.35 17.35 0 0 1-13.275 5.159c-8.797-.428-15.892-7.453-16.44-16.131H8.62c.527 5.597 5.017 10.063 10.649 10.58.377.038.755.054 1.137.054.373 0 .746-.016 1.107-.053 5.633-.518 10.126-4.984 10.648-10.581h7.781c.021-.318.032-.64.032-.962a15.94 15.94 0 0 0-.032-1.232C39.38 8.77 31.135.678 20.983.387A19.54 19.54 0 0 0 6.232 6.44m-3.659 5.407a2.276 2.276 0 0 1-.372-1.247 2.317 2.317 0 0 1 2.319-2.305c.047 0 .095.005.138.005.809.048 1.5.508 1.878 1.163.19.338.303.724.303 1.137a2.317 2.317 0 0 1-2.319 2.304h-.01a2.325 2.325 0 0 1-1.937-1.057m16.924 17.473c-4.505-.423-8.11-3.953-8.626-8.403a9.295 9.295 0 0 1 0-2.194c.515-4.455 4.121-7.98 8.626-8.404.298-.026.602-.042.91-.042.297 0 .585.016.877.042 4.505.423 8.112 3.954 8.628 8.404a9.52 9.52 0 0 1 0 2.194c-.516 4.455-4.123 7.98-8.628 8.403a9.64 9.64 0 0 1-.878.043c-.307 0-.611-.016-.909-.043m16.626 2.02a2.325 2.325 0 0 1-1.877-1.163 2.296 2.296 0 0 1-.303-1.136 2.317 2.317 0 0 1 2.319-2.305h.01a2.33 2.33 0 0 1 1.936 1.057c.234.36.372.787.372 1.248a2.316 2.316 0 0 1-2.318 2.304c-.048 0-.096-.006-.139-.006" mask="url(#e)"/>
        </g>
    </g>
</svg>
